<?xml version="1.0" encoding="utf-8"?>
<!-- Generator: Adobe Illustrator 23.0.3, SVG Export Plug-In . SVG Version: 6.00 Build 0)  -->
<svg version="1.1" id="Layer_1" xmlns="http://www.w3.org/2000/svg" xmlns:xlink="http://www.w3.org/1999/xlink" x="0px" y="0px"
	 viewBox="0 0 32 32" style="enable-background:new 0 0 32 32;" xml:space="preserve">
<style type="text/css">
	.st0{fill:#6EBEFE;}
</style>
<g>
	<path class="st0" d="M1.61,16.54c-0.73,0-1.28,0.17-1.57,0.88c0,0.28-0.05,1.32-0.03,1.55c0.03,0.37,0.4,0.47,0.75,0.46
		c1.41-0.05,2.8,0.12,4.15,0.55c4.2,1.32,7.26,5.15,7.62,9.51c0.04,0.51,0.12,1.03,0.07,1.54c-0.04,0.43,0.08,0.67,0.54,0.7
		c0.14,0.01,2.25,0.26,2.3-1.29c0.02-0.65-0.05-1.31-0.14-1.96C14.36,21.74,8.44,16.59,1.61,16.54z"/>
	<path class="st0" d="M9.95,29.11c-0.56-4-4.28-7.22-8.32-7.2c-0.66,0-1.28,0.13-1.59,0.82c0,0.28,0,0.57,0,0.85
		c0.1,1.05,0.8,1.28,1.71,1.28c0.53,0,1.04,0.17,1.56,0.3c1.69,0.46,2.81,1.51,3.34,3.17c0.24,0.74,0.44,1.5,0.49,2.27
		c0.04,0.65,0.15,1.15,0.89,1.26c0.39,0,0.78,0,1.17,0c0.68-0.25,0.93-0.76,0.86-1.45C10.02,29.99,10.01,29.55,9.95,29.11z"/>
	<path class="st0" d="M32,30.82c0-6.31,0-12.61,0-18.92c-0.3-0.82-0.93-1.32-1.62-1.81C26.01,6.96,21.66,3.83,17.3,0.7
		c-0.24-0.17-0.5-0.33-0.74-0.5c-0.32-0.21-0.42-0.32-0.96,0c-1.67,0.91-3.12,2.14-4.67,3.23c-3.26,2.3-6.49,4.64-9.74,6.94
		c-0.53,0.37-0.93,0.67-1.04,1.42c-0.11,0.43-0.11,0.78-0.11,1.17c0.24,0.89,0.95,1.04,1.72,1.08c3.3,0.15,6.37,1.02,9.09,2.94
		c4.03,2.84,6.35,6.73,6.99,11.62c0.15,1.09,0.11,2.19,0.09,3.29c3.84,0,7.67,0,11.51,0c0.5,0,0.99,0,1.49,0
		c0.36,0,1.03-0.04,1.03-0.04S32,31.17,32,30.82z"/>
	<path class="st0" d="M2.34,27.39c-0.06,0-0.21,0.01-0.35,0.02c-1.1,0.12-1.65,0.89-1.31,1.94C1,30.32,1.67,30.99,2.64,31.3
		c0.96,0.31,1.68-0.1,1.95-1.08C5.04,28.64,4.09,27.39,2.34,27.39z"/>
</g>
</svg>
